<svg width="304" height="356" viewBox="0 0 304 356" fill="none" xmlns="http://www.w3.org/2000/svg">
<path d="M272 49.7626L272.382 53.7443L272 49.7626ZM95 66.7626V70.7626H95.1917L95.3824 70.7443L95 66.7626ZM84 257.763L87.9948 257.967L87.9997 257.871L88 257.775L84 257.763ZM106.5 273.763L105.999 269.794L105.955 269.8L105.911 269.806L106.5 273.763ZM269 253.263L268.715 249.273L268.607 249.281L268.499 249.294L269 253.263ZM278.5 246.263L282.233 247.699L282.5 247.005V246.263H278.5ZM278.5 57.7626L274.526 57.3069L274.5 57.534V57.7626H278.5ZM6.5596 23.2626L8.58826 19.8152C7.6849 19.2836 6.60897 19.1279 5.59193 19.3814L6.5596 23.2626ZM4.07292 29.7105L0.0868146 29.3774C0.0775573 29.4882 0.0729227 29.5993 0.0729227 29.7105H4.07292ZM4.07292 206.282L8.0578 206.629C8.06788 206.514 8.07292 206.398 8.07292 206.282H4.07292ZM9.54361 220.665L11.8039 217.365C11.6177 217.238 11.4211 217.126 11.2161 217.032L9.54361 220.665ZM80.5 269.263L82.9671 266.114C82.8998 266.061 82.8308 266.011 82.7603 265.962L80.5 269.263ZM184.5 4.26265L184.168 0.276464C184.137 0.279 184.107 0.281884 184.077 0.285116L184.5 4.26265ZM198.5 4.76251L200.414 1.25006C200.171 1.11761 199.915 1.01075 199.649 0.931202L198.5 4.76251ZM276.5 47.2625L274.586 50.7749C274.794 50.888 275.011 50.9825 275.235 51.0572L276.5 47.2625ZM84 160.263H80C80 160.422 80.0095 160.581 80.0285 160.739L84 160.263ZM84 180.584L80.0285 180.107C80.0095 180.265 80 180.424 80 180.584H84ZM183 70.4221H187C187 70.2747 186.992 70.1274 186.976 69.9809L183 70.4221ZM278 162.961L281.996 162.778C281.993 162.71 281.988 162.641 281.981 162.573L278 162.961ZM184 252.064L180.001 252.154C180.003 252.253 180.009 252.353 180.019 252.452L184 252.064ZM65.2812 62.5908C71.0243 66.4196 86.5235 72.6849 105.615 69.7151L104.385 61.8102C87.4765 64.4404 73.9757 58.7723 69.7188 55.9344L65.2812 62.5908ZM40.4613 47.7359L229.961 25.7359L229.039 17.7893L39.5387 39.7893L40.4613 47.7359ZM271.618 45.781L94.6176 62.781L95.3824 70.7443L272.382 53.7443L271.618 45.781ZM95 62.7626C92.4493 62.7626 88.6984 63.4946 85.5264 65.8523C82.1276 68.3785 79.7469 72.5279 80.0038 78.4364L87.9962 78.0889C87.8531 74.7974 89.0558 73.1968 90.2986 72.273C91.7683 71.1807 93.7174 70.7626 95 70.7626V62.7626ZM80.0038 78.4364C80.3984 87.5132 80.167 201.65 80 257.751L88 257.775C88.1664 201.876 88.4016 87.4121 87.9962 78.0889L80.0038 78.4364ZM80.0052 257.558C79.7991 261.578 80.9053 267.451 85.157 271.986C89.593 276.717 96.7476 279.259 107.089 277.719L105.911 269.806C97.4524 271.066 93.1903 268.858 90.993 266.514C88.6114 263.974 87.8676 260.447 87.9948 257.967L80.0052 257.558ZM107.001 277.731L269.501 257.231L268.499 249.294L105.999 269.794L107.001 277.731ZM269.285 257.252C272.447 257.027 279.458 254.916 282.233 247.699L274.767 244.827C273.543 248.009 270.219 249.165 268.715 249.273L269.285 257.252ZM282.5 246.263V57.7626H274.5V246.263H282.5ZM282.474 58.2183C282.695 56.2917 282.586 53.2421 281.15 50.5655C280.393 49.1553 279.224 47.7767 277.497 46.8426C275.764 45.9053 273.765 45.5747 271.618 45.781L272.382 53.7443C273.235 53.6624 273.59 53.8245 273.691 53.8789C273.797 53.9366 273.94 54.049 274.1 54.3475C274.275 54.6727 274.425 55.1456 274.504 55.7374C274.583 56.3222 274.574 56.8892 274.526 57.3069L282.474 58.2183ZM179.5 58.7626V262.763H187.5V58.7626H179.5ZM84.9327 175.739L277.933 154.739L277.067 146.786L84.0673 167.786L84.9327 175.739ZM88.6592 66.934L8.58826 19.8152L4.53094 26.71L84.6019 73.8288L88.6592 66.934ZM5.59193 19.3814C4.45054 19.666 3.61322 20.3317 3.07662 20.8847C2.49232 21.4868 2.0141 22.2101 1.62619 23.0002C0.852886 24.5753 0.313068 26.6697 0.0868146 29.3774L8.05903 30.0435C8.23065 27.9898 8.60261 26.9429 8.80739 26.5258C8.90854 26.3198 8.93594 26.3342 8.81789 26.4559C8.74754 26.5283 8.3371 26.9419 7.52727 27.1438L5.59193 19.3814ZM0.0880418 205.934C-0.109058 208.195 -0.027523 211.68 0.882738 215.05C1.76609 218.32 3.68858 222.374 7.87113 224.299L11.2161 217.032C10.2264 216.576 9.24772 215.339 8.60591 212.964C7.99101 210.687 7.92335 208.171 8.0578 206.629L0.0880418 205.934ZM7.28335 223.965L78.2397 272.563L82.7603 265.962L11.8039 217.365L7.28335 223.965ZM78.0329 272.411C81.1217 274.832 88.8325 279.361 103.442 277.738L102.558 269.787C90.1675 271.164 84.5201 267.331 82.9671 266.114L78.0329 272.411ZM1.85111 125.636L80.3511 175.636L84.6489 168.889L6.14889 118.889L1.85111 125.636ZM37 44.7626V243.263H45V44.7626H37ZM64.6 263.463C65.355 264.029 66.9555 265.041 68.9615 265.877C70.935 266.699 73.6987 267.519 76.6234 267.245C79.7742 266.95 82.8707 265.39 85.0157 261.963C87.022 258.757 88 254.234 88 248.263H80C80 253.542 79.103 256.331 78.2343 257.719C77.5043 258.885 76.7258 259.2 75.8766 259.28C74.8013 259.381 73.44 259.076 72.0385 258.492C70.6695 257.922 69.645 257.246 69.4 257.063L64.6 263.463ZM6.42338 27.2402L184.923 8.24018L184.077 0.285116L5.57662 19.2851L6.42338 27.2402ZM184.832 8.24883C185.768 8.17083 188.152 8.00405 190.756 8.00007C193.494 7.99589 195.968 8.17911 197.351 8.59381L199.649 0.931202C197.032 0.145901 193.506 -0.00413752 190.744 8.17776e-05C187.848 0.00450587 185.232 0.187793 184.168 0.276464L184.832 8.24883ZM196.586 8.27495L274.586 50.7749L278.414 43.7501L200.414 1.25006L196.586 8.27495ZM275.235 51.0572C274.399 50.7787 274.002 50.2581 273.906 50.1141C273.818 49.9812 273.891 50.0392 274.012 50.4879C274.255 51.3911 274.5 53.1561 274.5 56.2626H282.5C282.5 52.8692 282.245 50.3008 281.738 48.4123C281.318 46.8488 280.348 44.3288 277.765 43.4678L275.235 51.0572ZM111.818 15.1154L184.818 62.6154L189.182 55.9099L116.182 8.40991L111.818 15.1154ZM258.467 41.8585C259.134 42.404 259.771 43.0823 260.201 43.7507C260.65 44.4499 260.682 44.8333 260.679 44.9073C260.679 44.9167 260.681 44.9178 260.664 44.9486C260.642 44.9899 260.54 45.1565 260.22 45.4093C259.53 45.9537 258.045 46.7206 255.145 47.355L256.855 55.1702C260.355 54.4046 263.154 53.284 265.174 51.691C267.316 50.0016 268.558 47.7791 268.671 45.268C268.776 42.942 267.887 40.9128 266.93 39.4246C265.954 37.9055 264.699 36.6212 263.533 35.6668L258.467 41.8585ZM72.3765 65.7614C74.1964 68.0362 81.3681 76.9824 80.0175 91.3893L87.9825 92.136C89.6319 74.5429 80.8036 63.4891 78.6235 60.7639L72.3765 65.7614ZM17.8377 25.2098C16.4557 24.495 14.6986 23.7374 12.7915 23.3957C10.8622 23.0499 8.51055 23.0873 6.26569 24.3171C1.73271 26.8003 1.26362e-05 32.6473 1.14441e-05 40.7626H8.00001C8.00001 32.8779 9.85065 31.4749 10.1093 31.3332C10.2603 31.2505 10.6066 31.1316 11.3804 31.2702C12.1765 31.4129 13.1276 31.7803 14.1623 32.3155L17.8377 25.2098ZM80 143.763V160.263H88V143.763H80ZM80.0285 160.739C80.3624 163.522 81.721 167.46 84.8769 170.47C88.226 173.664 93.1826 175.408 99.7284 174.196L98.2716 166.33C94.0174 167.117 91.724 165.945 90.3981 164.68C88.879 163.232 88.1376 161.17 87.9715 159.786L80.0285 160.739ZM179.5 226.763V258.263H187.5V226.763H179.5ZM179.5 258.263C179.5 257.92 179.568 257.66 179.623 257.506C179.65 257.428 179.677 257.372 179.694 257.337C179.712 257.302 179.724 257.284 179.725 257.283C179.725 257.282 179.718 257.294 179.698 257.318C179.679 257.343 179.651 257.377 179.611 257.421C179.53 257.509 179.415 257.624 179.257 257.761C178.593 258.339 177.482 259.061 175.978 259.771C172.963 261.196 169.047 262.263 165.5 262.263V270.263C170.453 270.263 175.537 268.829 179.397 267.004C181.331 266.09 183.126 264.999 184.509 263.796C185.199 263.195 185.886 262.481 186.426 261.653C186.951 260.847 187.5 259.681 187.5 258.263H179.5ZM88 197.084V180.584H80V197.084H88ZM87.9715 181.06C88.1376 179.676 88.879 177.615 90.3981 176.166C91.724 174.901 94.0174 173.729 98.2716 174.517L99.7284 166.651C93.1826 165.438 88.226 167.183 84.8769 170.376C81.721 173.386 80.3624 177.324 80.0285 180.107L87.9715 181.06ZM187 88.2626V70.4221H179V88.2626H187ZM186.976 69.9809C186.656 67.0981 185.345 62.9388 182.234 59.7308C178.904 56.2975 173.882 54.3526 167.215 55.6876L168.785 63.5319C172.918 62.7044 175.146 63.9131 176.491 65.3003C178.055 66.9128 178.844 69.241 179.024 70.8634L186.976 69.9809ZM282.996 184.579L281.996 162.778L274.004 163.145L275.004 184.946L282.996 184.579ZM281.981 162.573C281.657 159.255 280.155 155.074 276.789 152.044C273.233 148.844 268.105 147.383 261.611 148.863L263.389 156.663C267.695 155.681 270.067 156.757 271.436 157.99C272.995 159.393 273.843 161.541 274.019 163.35L281.981 162.573ZM179.501 229.852L180.001 252.154L187.999 251.974L187.499 229.673L179.501 229.852ZM180.019 252.452C180.343 255.77 181.845 259.952 185.212 262.982C188.767 266.182 193.895 267.642 200.389 266.163L198.611 258.363C194.305 259.344 191.933 258.268 190.564 257.035C189.005 255.633 188.157 253.484 187.981 251.676L180.019 252.452ZM0.0729227 29.7105V206.282H8.07292V29.7105H0.0729227Z" fill="#2977F5"/>
<defs>

</defs>
</svg>
